<svg xmlns="http://www.w3.org/2000/svg" version="1.1" xmlns:xlink="http://www.w3.org/1999/xlink" xmlns:svgjs="http://svgjs.dev/svgjs" width="2000" height="410" viewBox="0 0 2000 410"><g transform="matrix(1,0,0,1,0.213333333333253,0.25292207792199406)"><svg viewBox="0 0 375 77" data-background-color="#fce44d" preserveAspectRatio="xMidYMid meet" height="410" width="2000" xmlns="http://www.w3.org/2000/svg" xmlns:xlink="http://www.w3.org/1999/xlink"><g id="tight-bounds" transform="matrix(1,0,0,1,-0.03976036071776434,-0.04744732666014784)"><svg viewBox="0 0 375.07952880859375 77.09465789794922" height="77.09465789794922" width="375.07952880859375"><g><svg></svg></g><g><svg viewBox="0 0 375.07952880859375 77.09465789794922" height="77.09465789794922" width="375.07952880859375"><g transform="matrix(1,0,0,1,-10.220239639282227,-87.16805267333984)"><path xmlns="http://www.w3.org/2000/svg" d="M10.22 160.032v-72.864h375.08v72.864h-21.998l0-2.445h19.553v-67.974h-370.19v67.974h29.274l0 2.445z" fill="#000000" fill-rule="nonzero" stroke="none" stroke-width="1" stroke-linecap="butt" stroke-linejoin="miter" stroke-miterlimit="10" stroke-dasharray="" stroke-dashoffset="0" font-family="none" font-weight="none" font-size="none" text-anchor="none" style="mix-blend-mode: normal" data-fill-palette-color="tertiary"></path><g><path xmlns="http://www.w3.org/2000/svg" d="M53.664 162.019c-0.827 0-1.577-0.185-2.248-0.553-0.673-0.371-1.198-0.878-1.575-1.523-0.379-0.644-0.568-1.368-0.568-2.172v0c0-0.803 0.189-1.527 0.568-2.171 0.377-0.644 0.902-1.152 1.575-1.523 0.671-0.369 1.421-0.554 2.248-0.553v0c0.827 0 1.573 0.183 2.239 0.548 0.663 0.366 1.186 0.873 1.568 1.521 0.382 0.649 0.573 1.375 0.572 2.178v0c0 0.803-0.191 1.529-0.572 2.177-0.382 0.649-0.904 1.157-1.568 1.523-0.665 0.366-1.411 0.549-2.239 0.548zM53.664 161.232c0.66 0 1.257-0.15 1.79-0.449 0.533-0.298 0.951-0.711 1.253-1.241 0.302-0.528 0.453-1.118 0.453-1.771v0c0-0.652-0.151-1.243-0.453-1.773-0.302-0.528-0.72-0.942-1.253-1.241-0.533-0.298-1.13-0.446-1.79-0.446v0c-0.66 0-1.258 0.149-1.795 0.446-0.538 0.299-0.959 0.713-1.264 1.241-0.307 0.53-0.461 1.121-0.461 1.773v0c0 0.652 0.154 1.243 0.461 1.771 0.305 0.53 0.727 0.943 1.264 1.241 0.536 0.299 1.134 0.449 1.795 0.449zM73.08 155.624c0.788 0 1.414 0.228 1.879 0.685 0.466 0.458 0.699 1.125 0.699 1.999v0 3.64h-0.847v-3.556c0-0.652-0.163-1.149-0.49-1.492-0.326-0.342-0.792-0.513-1.396-0.513v0c-0.676 0-1.212 0.2-1.606 0.602-0.393 0.403-0.589 0.958-0.589 1.666v0 3.293h-0.847v-6.277h0.811v1.158c0.231-0.382 0.55-0.679 0.959-0.89 0.41-0.21 0.886-0.315 1.427-0.315zM90.705 161.256c0.39 0 0.75-0.07 1.081-0.21 0.329-0.138 0.609-0.343 0.84-0.614v0l0.477 0.549c-0.278 0.334-0.624 0.589-1.038 0.764-0.414 0.175-0.871 0.263-1.372 0.262v0c-0.644 0-1.217-0.138-1.719-0.412-0.501-0.274-0.891-0.653-1.169-1.139-0.278-0.485-0.418-1.034-0.418-1.646v0c0-0.613 0.134-1.161 0.401-1.647 0.266-0.485 0.633-0.863 1.103-1.134 0.469-0.27 1.002-0.406 1.599-0.405v0c0.557 0 1.06 0.127 1.51 0.382 0.449 0.255 0.807 0.609 1.074 1.061 0.266 0.453 0.406 0.971 0.423 1.552v0l-5.155 1.002c0.159 0.509 0.448 0.908 0.866 1.198 0.417 0.291 0.916 0.437 1.497 0.437zM90.49 156.352c-0.438 0-0.829 0.101-1.174 0.303-0.347 0.204-0.617 0.486-0.812 0.847-0.196 0.363-0.294 0.779-0.293 1.248v0c0 0.119 0.004 0.207 0.012 0.262v0l4.427-0.859c-0.095-0.525-0.338-0.957-0.728-1.296-0.39-0.337-0.867-0.506-1.432-0.505zM121.662 155.624c0.589 0 1.122 0.133 1.599 0.398 0.477 0.267 0.851 0.644 1.121 1.129 0.27 0.485 0.406 1.038 0.406 1.659v0c0 0.628-0.135 1.185-0.406 1.67-0.27 0.485-0.643 0.861-1.116 1.127-0.473 0.267-1.007 0.401-1.604 0.4v0c-0.509 0-0.969-0.105-1.38-0.315-0.409-0.212-0.745-0.52-1.007-0.925v0 3.496h-0.847v-8.592h0.812v1.241c0.255-0.414 0.59-0.732 1.007-0.954 0.418-0.223 0.89-0.334 1.415-0.334zM121.602 161.256c0.438 0 0.835-0.101 1.193-0.303 0.358-0.204 0.638-0.492 0.84-0.867 0.204-0.374 0.305-0.799 0.306-1.276v0c0-0.477-0.102-0.901-0.306-1.272-0.202-0.369-0.482-0.657-0.84-0.864-0.358-0.207-0.756-0.31-1.193-0.311v0c-0.445 0-0.846 0.103-1.2 0.311-0.353 0.207-0.632 0.495-0.835 0.864-0.202 0.371-0.303 0.795-0.304 1.272v0c0 0.477 0.101 0.903 0.304 1.276 0.204 0.374 0.482 0.663 0.835 0.867 0.355 0.202 0.755 0.303 1.2 0.303zM136.556 161.948v-6.277h0.847v6.277zM136.985 154.299c-0.175 0-0.322-0.06-0.441-0.179-0.119-0.119-0.179-0.263-0.179-0.429v0c0-0.159 0.06-0.298 0.179-0.418 0.119-0.119 0.266-0.179 0.441-0.179v0c0.175 0 0.322 0.057 0.442 0.172 0.119 0.116 0.179 0.254 0.179 0.413v0c0 0.175-0.06 0.322-0.179 0.441-0.119 0.119-0.266 0.179-0.442 0.179zM154.765 161.948h-0.967l-1.993-2.625-2.004 2.625h-0.955l2.482-3.222-2.363-3.055h0.955l1.885 2.458 1.886-2.458h0.93l-2.362 3.055zM168.668 161.256c0.39 0 0.75-0.07 1.081-0.21 0.329-0.138 0.609-0.343 0.84-0.614v0l0.478 0.549c-0.278 0.334-0.624 0.589-1.039 0.764-0.414 0.175-0.871 0.263-1.372 0.262v0c-0.644 0-1.217-0.138-1.718-0.412-0.501-0.274-0.891-0.653-1.169-1.139-0.278-0.485-0.418-1.034-0.418-1.646v0c0-0.613 0.134-1.161 0.401-1.647 0.266-0.485 0.633-0.863 1.102-1.134 0.469-0.27 1.002-0.406 1.599-0.405v0c0.557 0 1.06 0.127 1.511 0.382 0.449 0.255 0.807 0.609 1.074 1.061 0.266 0.453 0.406 0.971 0.422 1.552v0l-5.154 1.002c0.159 0.509 0.448 0.908 0.866 1.198 0.417 0.291 0.916 0.437 1.496 0.437zM168.453 156.352c-0.438 0-0.829 0.101-1.174 0.303-0.347 0.204-0.617 0.486-0.811 0.847-0.196 0.363-0.294 0.779-0.294 1.248v0c0 0.119 0.004 0.207 0.012 0.262v0l4.427-0.859c-0.095-0.525-0.338-0.957-0.728-1.296-0.39-0.337-0.867-0.506-1.432-0.505zM184.994 162.007c-0.565 0-1.001-0.159-1.308-0.477-0.305-0.318-0.458-0.76-0.458-1.324v0-7.112h0.847v7.04c0 0.374 0.087 0.658 0.263 0.852 0.175 0.196 0.438 0.294 0.787 0.294v0c0.223 0 0.414-0.036 0.573-0.108v0l0.06 0.704c-0.247 0.087-0.501 0.131-0.764 0.131zM214.994 155.671h0.848v6.277h-0.812v-1.241c-0.255 0.422-0.59 0.744-1.007 0.966-0.418 0.223-0.89 0.334-1.415 0.334v0c-0.589 0-1.122-0.135-1.599-0.405-0.477-0.27-0.851-0.648-1.122-1.134-0.27-0.485-0.406-1.038-0.405-1.658v0c0-0.62 0.135-1.173 0.405-1.659 0.27-0.485 0.644-0.862 1.122-1.129 0.477-0.266 1.01-0.399 1.599-0.398v0c0.509 0 0.969 0.105 1.379 0.315 0.409 0.212 0.745 0.52 1.007 0.926v0zM212.68 161.256c0.438 0 0.834-0.101 1.188-0.303 0.353-0.204 0.632-0.492 0.835-0.867 0.202-0.374 0.303-0.799 0.303-1.276v0c0-0.477-0.101-0.903-0.303-1.277-0.204-0.374-0.482-0.663-0.835-0.866-0.355-0.202-0.751-0.303-1.188-0.304v0c-0.445 0-0.845 0.101-1.198 0.304-0.355 0.204-0.633 0.492-0.836 0.866-0.204 0.374-0.305 0.799-0.305 1.277v0c0 0.477 0.102 0.903 0.305 1.276 0.202 0.374 0.48 0.663 0.836 0.867 0.353 0.202 0.753 0.303 1.198 0.303zM231.034 160.957l0.298 0.609c-0.159 0.143-0.354 0.252-0.584 0.327-0.231 0.076-0.473 0.115-0.728 0.114v0c-0.589 0-1.042-0.159-1.361-0.477-0.318-0.318-0.477-0.768-0.477-1.348v0-5.883h0.847v1.372h1.898v0.716h-1.898v3.747c0 0.374 0.091 0.658 0.275 0.852 0.183 0.196 0.449 0.294 0.799 0.294v0c0.382 0 0.692-0.107 0.931-0.323zM260.953 155.671h0.847v6.277h-0.811v-1.241c-0.255 0.422-0.591 0.744-1.01 0.966-0.417 0.223-0.888 0.334-1.412 0.334v0c-0.589 0-1.122-0.135-1.599-0.405-0.477-0.27-0.851-0.648-1.122-1.134-0.27-0.485-0.406-1.038-0.406-1.658v0c0-0.62 0.135-1.173 0.406-1.659 0.27-0.485 0.644-0.862 1.122-1.129 0.477-0.266 1.01-0.399 1.599-0.398v0c0.509 0 0.968 0.105 1.377 0.315 0.41 0.212 0.747 0.52 1.009 0.926v0zM258.638 161.256c0.438 0 0.833-0.101 1.186-0.303 0.355-0.204 0.633-0.492 0.836-0.867 0.204-0.374 0.305-0.799 0.305-1.276v0c0-0.477-0.102-0.903-0.305-1.277-0.202-0.374-0.48-0.663-0.836-0.866-0.353-0.202-0.749-0.303-1.186-0.304v0c-0.445 0-0.846 0.101-1.2 0.304-0.353 0.204-0.632 0.492-0.835 0.866-0.202 0.374-0.303 0.799-0.304 1.277v0c0 0.477 0.101 0.903 0.304 1.276 0.204 0.374 0.482 0.663 0.835 0.867 0.355 0.202 0.755 0.303 1.2 0.303zM290.154 160.957l0.298 0.609c-0.159 0.143-0.354 0.252-0.584 0.327-0.231 0.076-0.473 0.115-0.728 0.114v0c-0.589 0-1.042-0.159-1.361-0.477-0.318-0.318-0.477-0.768-0.477-1.348v0-5.883h0.847v1.372h1.898v0.716h-1.898v3.747c0 0.374 0.091 0.658 0.275 0.852 0.183 0.196 0.449 0.294 0.799 0.294v0c0.382 0 0.692-0.107 0.931-0.323zM302.029 161.948v-6.277h0.847v6.277zM302.459 154.299c-0.175 0-0.322-0.06-0.442-0.179-0.119-0.119-0.179-0.263-0.179-0.429v0c0-0.159 0.06-0.298 0.179-0.418 0.119-0.119 0.266-0.179 0.442-0.179v0c0.175 0 0.322 0.057 0.441 0.172 0.119 0.116 0.179 0.254 0.179 0.413v0c0 0.175-0.06 0.322-0.179 0.441-0.119 0.119-0.266 0.179-0.441 0.179zM323.102 155.624c0.788 0 1.406 0.227 1.856 0.68 0.449 0.453 0.673 1.122 0.673 2.004v0 3.64h-0.847v-3.556c0-0.652-0.157-1.149-0.47-1.492-0.315-0.342-0.759-0.513-1.332-0.513v0c-0.652 0-1.165 0.2-1.539 0.602-0.374 0.403-0.561 0.958-0.561 1.666v0 3.293h-0.847v-3.556c0-0.652-0.157-1.149-0.47-1.492-0.315-0.342-0.763-0.513-1.344-0.513v0c-0.644 0-1.155 0.2-1.532 0.602-0.379 0.403-0.568 0.958-0.568 1.666v0 3.293h-0.847v-6.277h0.811v1.146c0.223-0.382 0.533-0.676 0.931-0.883 0.398-0.207 0.855-0.31 1.372-0.31v0c0.525 0 0.981 0.111 1.368 0.334 0.385 0.223 0.673 0.553 0.864 0.99v0c0.231-0.414 0.563-0.738 0.997-0.973 0.433-0.234 0.928-0.351 1.485-0.351zM340.68 161.256c0.39 0 0.75-0.07 1.081-0.21 0.329-0.138 0.609-0.343 0.84-0.614v0l0.478 0.549c-0.278 0.334-0.624 0.589-1.038 0.764-0.414 0.175-0.871 0.263-1.373 0.262v0c-0.644 0-1.217-0.138-1.718-0.412-0.501-0.274-0.891-0.653-1.169-1.139-0.278-0.485-0.418-1.034-0.418-1.646v0c0-0.613 0.134-1.161 0.401-1.647 0.266-0.485 0.633-0.863 1.103-1.134 0.469-0.27 1.002-0.406 1.599-0.405v0c0.557 0 1.06 0.127 1.51 0.382 0.449 0.255 0.807 0.609 1.074 1.061 0.266 0.453 0.406 0.971 0.423 1.552v0l-5.155 1.002c0.159 0.509 0.448 0.908 0.866 1.198 0.417 0.291 0.916 0.437 1.496 0.437zM340.466 156.352c-0.438 0-0.829 0.101-1.175 0.303-0.347 0.204-0.617 0.486-0.811 0.847-0.196 0.363-0.294 0.779-0.294 1.248v0c0 0.119 0.004 0.207 0.012 0.262v0l4.427-0.859c-0.095-0.525-0.338-0.957-0.728-1.296-0.39-0.337-0.867-0.506-1.431-0.505zM355.324 162.007c-0.175 0-0.325-0.064-0.449-0.19-0.123-0.127-0.184-0.282-0.184-0.466v0c0-0.183 0.061-0.336 0.184-0.458 0.124-0.124 0.274-0.186 0.449-0.186v0c0.175 0 0.326 0.062 0.453 0.186 0.127 0.123 0.191 0.275 0.191 0.458v0c0 0.183-0.064 0.338-0.191 0.466-0.127 0.127-0.278 0.191-0.453 0.19z" fill="#000000" fill-rule="nonzero" stroke="none" stroke-width="1" stroke-linecap="butt" stroke-linejoin="miter" stroke-miterlimit="10" stroke-dasharray="" stroke-dashoffset="0" font-family="none" font-weight="none" font-size="none" text-anchor="none" style="mix-blend-mode: normal" data-fill-palette-color="secondary"></path></g></g><g transform="matrix(1,0,0,1,29.331764404296877,24.993093792764427)"><svg viewBox="0 0 316.416 27.108470312420366" height="27.108470312420366" width="316.416"><g><svg viewBox="0 0 316.416 27.108470312420366" height="27.108470312420366" width="316.416"><g><svg viewBox="0 0 316.416 27.108470312420366" height="27.108470312420366" width="316.416"><g><svg viewBox="0 0 316.416 27.108470312420366" height="27.108470312420366" width="316.416"><g id="textblocktransform"><svg viewBox="0 0 316.416 27.108470312420366" height="27.108470312420366" width="316.416" id="textblock"><g><svg viewBox="0 0 316.416 27.108470312420366" height="27.108470312420366" width="316.416"><g transform="matrix(1,0,0,1,0,0)"><svg width="316.416" viewBox="3.0799999237060547 -40.5 479 41.040000915527344" height="27.108470312420366" data-palette-color="#374151"><path d="M3.08-5.08L7.2-11.35Q9.28-10.18 11.41-9.24 13.55-8.3 15.84-7.65 18.14-7.01 20.67-6.67 23.19-6.32 26.05-6.32L26.05-6.32Q29.49-6.32 31.91-6.77 34.33-7.23 35.85-8.02 37.38-8.81 38.07-9.91 38.77-11.01 38.77-12.3L38.77-12.3Q38.77-14.38 37.04-15.59 35.3-16.8 31.69-16.8L31.69-16.8Q30.1-16.8 28.34-16.59 26.59-16.38 24.79-16.14 23-15.89 21.25-15.69 19.51-15.48 17.97-15.48L17.97-15.48Q15.41-15.48 13.05-16.14 10.69-16.8 8.87-18.12 7.06-19.43 5.98-21.41 4.91-23.39 4.91-26.03L4.91-26.03Q4.91-27.59 5.33-29.13 5.76-30.66 6.7-32.07 7.64-33.47 9.13-34.68 10.62-35.89 12.73-36.77 14.84-37.65 17.61-38.15 20.39-38.65 23.93-38.65L23.93-38.65Q26.49-38.65 29.08-38.37 31.67-38.09 34.12-37.57 36.57-37.06 38.84-36.34 41.11-35.62 43.07-34.74L43.07-34.74 39.67-28.49Q38.06-29.2 36.21-29.8 34.35-30.4 32.32-30.83 30.3-31.27 28.14-31.53 25.98-31.79 23.73-31.79L23.73-31.79Q20.53-31.79 18.47-31.32 16.41-30.86 15.19-30.14 13.96-29.42 13.49-28.53 13.01-27.64 13.01-26.76L13.01-26.76Q13.01-25.05 14.55-23.96 16.09-22.88 19.24-22.88L19.24-22.88Q20.51-22.88 22.16-23.06 23.8-23.24 25.62-23.46 27.44-23.68 29.33-23.86 31.23-24.05 33.01-24.05L33.01-24.05Q36.38-24.05 38.98-23.29 41.58-22.53 43.33-21.13 45.09-19.73 46-17.74 46.9-15.75 46.9-13.28L46.9-13.28Q46.9-9.99 45.37-7.41 43.85-4.83 41.03-3.06 38.21-1.29 34.23-0.38 30.25 0.54 25.37 0.54L25.37 0.54Q22.14 0.54 19.07 0.13 15.99-0.27 13.17-1.01 10.35-1.76 7.8-2.8 5.25-3.83 3.08-5.08L3.08-5.08ZM53.15-9.08L53.15-9.08Q53.15-11.16 54.05-12.87 54.95-14.58 56.76-15.81 58.57-17.04 61.26-17.71 63.96-18.38 67.55-18.38L67.55-18.38Q70.21-18.38 73.15-17.99 76.1-17.6 79.22-16.8L79.22-16.8Q79.1-18.16 78.39-19.32 77.68-20.48 76.43-21.33 75.17-22.17 73.4-22.63 71.63-23.1 69.38-23.1L69.38-23.1Q68.16-23.1 66.7-22.95 65.23-22.8 63.67-22.51 62.11-22.22 60.58-21.78 59.06-21.34 57.74-20.73L57.74-20.73 55.54-26.66Q57.18-27.25 59.04-27.73 60.91-28.22 62.86-28.58 64.82-28.93 66.77-29.13 68.72-29.32 70.55-29.32L70.55-29.32Q78.64-29.32 82.57-25.2 86.5-21.07 86.5-12.55L86.5-12.55 86.5 0 79.27 0 79.27-2.71Q78.15-2.05 76.82-1.46 75.49-0.88 73.92-0.44 72.36 0 70.57 0.26 68.77 0.51 66.77 0.51L66.77 0.51Q63.4 0.51 60.85-0.22 58.3-0.95 56.59-2.25 54.88-3.54 54.01-5.29 53.15-7.03 53.15-9.08ZM60.76-9.33L60.76-9.33Q60.76-8.62 61.13-7.97 61.5-7.32 62.3-6.82 63.11-6.32 64.37-6.02 65.62-5.71 67.4-5.71L67.4-5.71Q69.31-5.71 71.09-6.05 72.87-6.4 74.41-6.96 75.95-7.52 77.19-8.25 78.44-8.98 79.27-9.77L79.27-9.77 79.27-11.04Q77.61-11.5 75.99-11.82 74.36-12.13 72.89-12.32 71.41-12.5 70.1-12.57 68.8-12.65 67.82-12.65L67.82-12.65Q65.79-12.65 64.45-12.38 63.11-12.11 62.28-11.66 61.45-11.21 61.11-10.6 60.76-9.99 60.76-9.33ZM96.24 0L96.24-28.81 103.46-28.81 103.46-26.37Q106.17-28.03 108.75-28.67 111.32-29.32 113.79-29.32L113.79-29.32Q117.23-29.32 120.11-28.22 122.99-27.12 125.04-24.9L125.04-24.9Q126.63-26.12 128.17-26.97 129.71-27.81 131.25-28.33 132.78-28.86 134.37-29.09 135.96-29.32 137.64-29.32L137.64-29.32Q141.18-29.32 144.06-28.36 146.94-27.39 148.98-25.49 151.02-23.58 152.13-20.74 153.24-17.9 153.24-14.16L153.24-14.16 153.24 0 146.04 0 146.04-12.99Q146.04-15.36 145.37-17.22 144.7-19.09 143.49-20.37 142.28-21.66 140.61-22.33 138.94-23 136.93-23L136.93-23Q135.83-23 134.69-22.79 133.54-22.58 132.45-22.14 131.37-21.7 130.41-21.03 129.46-20.36 128.75-19.46L128.75-19.46 128.75 0 121.55 0 121.55-12.99Q121.55-15.36 120.88-17.22 120.21-19.09 119-20.37 117.79-21.66 116.1-22.33 114.4-23 112.37-23L112.37-23Q111.13-23 109.87-22.74 108.61-22.49 107.45-22.02 106.29-21.56 105.28-20.9 104.27-20.24 103.46-19.41L103.46-19.41 103.46 0 96.24 0ZM162.52 0L162.52-28.81 169.74-28.81 169.74-26.37Q172.45-28.03 175.03-28.67 177.6-29.32 180.07-29.32L180.07-29.32Q183.51-29.32 186.39-28.22 189.27-27.12 191.33-24.9L191.33-24.9Q192.91-26.12 194.45-26.97 195.99-27.81 197.53-28.33 199.06-28.86 200.65-29.09 202.24-29.32 203.92-29.32L203.92-29.32Q207.46-29.32 210.34-28.36 213.22-27.39 215.26-25.49 217.3-23.58 218.41-20.74 219.52-17.9 219.52-14.16L219.52-14.16 219.52 0 212.32 0 212.32-12.99Q212.32-15.36 211.65-17.22 210.98-19.09 209.77-20.37 208.56-21.66 206.89-22.33 205.22-23 203.22-23L203.22-23Q202.12-23 200.97-22.79 199.82-22.58 198.74-22.14 197.65-21.7 196.7-21.03 195.74-20.36 195.04-19.46L195.04-19.46 195.04 0 187.83 0 187.83-12.99Q187.83-15.36 187.16-17.22 186.49-19.09 185.28-20.37 184.07-21.66 182.38-22.33 180.68-23 178.65-23L178.65-23Q177.41-23 176.15-22.74 174.89-22.49 173.74-22.02 172.58-21.56 171.56-20.9 170.55-20.24 169.74-19.41L169.74-19.41 169.74 0 162.52 0ZM224.84 0L242.49-22.8 227.72-22.8 227.72-28.81 255.9-28.81 238.12-6.01 254.92-6.01 254.92 0 224.84 0ZM265.71-32.74L265.71-32.74Q264.64-32.74 263.77-33.04 262.9-33.35 262.29-33.87 261.68-34.4 261.35-35.1 261.02-35.79 261.02-36.57L261.02-36.57Q261.02-37.38 261.35-38.07 261.68-38.77 262.29-39.28 262.9-39.79 263.77-40.1 264.64-40.41 265.71-40.41L265.71-40.41Q266.81-40.41 267.68-40.1 268.54-39.79 269.15-39.28 269.76-38.77 270.09-38.07 270.42-37.38 270.42-36.57L270.42-36.57Q270.42-35.79 270.09-35.1 269.76-34.4 269.15-33.87 268.54-33.35 267.68-33.04 266.81-32.74 265.71-32.74ZM262.1 0L262.1-28.81 269.32-28.81 269.32 0 262.1 0ZM277.21-14.5L277.21-14.5Q277.21-17.43 278.4-20.1 279.6-22.78 281.85-24.83 284.09-26.88 287.35-28.1 290.61-29.32 294.76-29.32L294.76-29.32Q298.89-29.32 302.19-28.09 305.5-26.86 307.81-24.71 310.12-22.56 311.35-19.65 312.58-16.75 312.58-13.43L312.58-13.43Q312.58-13.01 312.57-12.54 312.56-12.06 312.51-11.67L312.51-11.67 285.26-11.67Q285.73-10.38 286.76-9.3 287.8-8.23 289.36-7.45 290.93-6.67 292.98-6.24 295.03-5.81 297.52-5.81L297.52-5.81Q300.01-5.81 302.48-6.34 304.94-6.86 307.19-7.67L307.19-7.67 309.63-2.15Q308.21-1.49 306.76-0.99 305.31-0.49 303.73-0.16 302.16 0.17 300.44 0.34 298.72 0.51 296.81 0.51L296.81 0.51Q291.95 0.51 288.29-0.66 284.63-1.83 282.16-3.86 279.7-5.88 278.45-8.62 277.21-11.35 277.21-14.5ZM285.26-17.31L304.92-17.31Q304.53-18.51 303.71-19.54 302.89-20.58 301.67-21.35 300.45-22.12 298.84-22.56 297.23-23 295.3-23L295.3-23Q293.25-23 291.56-22.53 289.88-22.07 288.61-21.29 287.34-20.51 286.5-19.48 285.65-18.46 285.26-17.31L285.26-17.31ZM337.85 0L337.85-38.16 357.96-38.16Q362.36-38.16 365.58-37.21 368.8-36.25 370.93-34.46 373.05-32.67 374.09-30.08 375.13-27.49 375.13-24.24L375.13-24.24Q375.13-21.19 374.1-18.6 373.08-16.02 370.96-14.12 368.85-12.23 365.63-11.17 362.41-10.11 358.01-10.11L358.01-10.11 345.59-10.13 345.59 0 337.85 0ZM345.59-16.82L358.16-16.82Q360.36-16.82 362-17.35 363.65-17.87 364.76-18.84 365.87-19.8 366.42-21.18 366.97-22.56 366.97-24.24L366.97-24.24Q366.97-27.64 364.76-29.53 362.55-31.42 358.16-31.42L358.16-31.42 345.59-31.42 345.59-16.82ZM382.67 0L382.67-28.81 389.89-28.81 389.89-24.66Q392.29-26.44 394.95-27.73 397.61-29.03 400.25-29.71L400.25-29.71 402.37-23.1Q398.2-22.68 395.03-21.23 391.87-19.78 389.89-17.14L389.89-17.14 389.89 0 382.67 0ZM406.01-14.4L406.01-14.4Q406.01-17.5 407.26-20.21 408.52-22.92 410.85-24.95 413.18-26.98 416.49-28.15 419.8-29.32 423.93-29.32L423.93-29.32Q428.05-29.32 431.36-28.15 434.67-26.98 437-24.95 439.33-22.92 440.59-20.21 441.85-17.5 441.85-14.4L441.85-14.4Q441.85-11.3 440.59-8.59 439.33-5.88 437-3.86 434.67-1.83 431.36-0.66 428.05 0.51 423.93 0.51L423.93 0.51Q419.8 0.51 416.49-0.66 413.18-1.83 410.85-3.86 408.52-5.88 407.26-8.59 406.01-11.3 406.01-14.4ZM413.6-14.4L413.6-14.4Q413.6-12.67 414.29-11.12 414.99-9.57 416.32-8.39 417.65-7.2 419.57-6.51 421.48-5.81 423.93-5.81L423.93-5.81Q426.37-5.81 428.28-6.51 430.2-7.2 431.53-8.39 432.86-9.57 433.56-11.12 434.25-12.67 434.25-14.4L434.25-14.4Q434.25-16.14 433.56-17.7 432.86-19.26 431.53-20.45 430.2-21.63 428.28-22.33 426.37-23.02 423.93-23.02L423.93-23.02Q421.48-23.02 419.57-22.33 417.65-21.63 416.32-20.45 414.99-19.26 414.29-17.7 413.6-16.14 413.6-14.4ZM446.92-14.28L446.92-14.28Q446.92-17.72 448.21-20.5 449.51-23.27 451.79-25.23 454.07-27.2 457.21-28.26 460.35-29.32 464.01-29.32L464.01-29.32Q465.57-29.32 467.1-29.13 468.62-28.93 470.03-28.59 471.43-28.25 472.67-27.77 473.9-27.29 474.85-26.73L474.85-26.73 474.85-40.5 482.08-40.5 482.08 0 474.85 0 474.85-2.71Q473.9-2.05 472.6-1.46 471.31-0.88 469.82-0.44 468.33 0 466.73 0.26 465.13 0.51 463.57 0.51L463.57 0.51Q459.91 0.51 456.85-0.56 453.78-1.64 451.58-3.59 449.39-5.54 448.15-8.26 446.92-10.99 446.92-14.28ZM454.51-14.28L454.51-14.28Q454.51-12.55 455.21-11.01 455.91-9.47 457.21-8.31 458.52-7.15 460.36-6.48 462.2-5.81 464.5-5.81L464.5-5.81Q465.96-5.81 467.43-6.09 468.89-6.37 470.25-6.88 471.6-7.4 472.79-8.13 473.97-8.86 474.85-9.77L474.85-9.77 474.85-19.75Q473.75-20.63 472.53-21.24 471.31-21.85 470.04-22.24 468.77-22.63 467.48-22.81 466.18-23 464.96-23L464.96-23Q462.47-23 460.53-22.33 458.59-21.66 457.26-20.48 455.93-19.31 455.22-17.72 454.51-16.14 454.51-14.28Z" opacity="1" transform="matrix(1,0,0,1,0,0)" fill="#000000" class="undefined-text-0" data-fill-palette-color="primary" id="text-0"></path></svg></g></svg></g></svg></g></svg></g></svg></g></svg></g></svg></g></svg></g><defs></defs></svg><rect width="375.07952880859375" height="77.09465789794922" fill="none" stroke="none" visibility="hidden"></rect></g></svg></g></svg>